<?xml version="1.0" encoding="utf-8"?>
<!-- Generator: Adobe Illustrator 17.1.0, SVG Export Plug-In . SVG Version: 6.00 Build 0)  -->
<!DOCTYPE svg PUBLIC "-//W3C//DTD SVG 1.1//EN" "http://www.w3.org/Graphics/SVG/1.1/DTD/svg11.dtd">
<svg version="1.1" id="Layer_1" xmlns="http://www.w3.org/2000/svg" xmlns:xlink="http://www.w3.org/1999/xlink" x="0px" y="0px"
	 width="510px" height="56.7px" viewBox="0 0 510 56.7" enable-background="new 0 0 510 56.7" xml:space="preserve">
<g>
	<g>
		<path fill="#FFFFFF" d="M150.5,45.4h-14.7V11.9h13.1c2.3,0,4.2,0.3,5.9,0.8c1.6,0.5,2.9,1.3,3.7,2.2c1.5,1.7,2.3,3.7,2.3,5.9
			c0,2.6-0.8,4.6-2.5,5.9c-0.6,0.4-1,0.7-1.2,0.8c-0.2,0.1-0.6,0.3-1.2,0.6c2.1,0.4,3.7,1.4,5,2.8c1.2,1.4,1.8,3.2,1.8,5.3
			c0,2.3-0.8,4.4-2.4,6.2C158.3,44.4,155.1,45.4,150.5,45.4z M143.3,25.5h3.6c2.1,0,3.6-0.2,4.6-0.7c1-0.4,1.5-1.4,1.5-2.9
			c0-1.5-0.5-2.5-1.4-3c-0.9-0.5-2.5-0.7-4.7-0.7h-3.6V25.5z M143.3,39.1h5.1c2.1,0,3.8-0.3,4.8-0.8c1.1-0.5,1.6-1.6,1.6-3.1
			c0-1.6-0.6-2.6-1.7-3.1c-1.1-0.5-3-0.7-5.5-0.7h-4.4V39.1z"/>
		<path fill="#FFFFFF" d="M202.9,23c0,5.4-2.1,8.9-6.4,10.4l8.5,12h-9.2l-7.4-10.7h-5.2v10.7h-7.5V11.9h12.7c5.2,0,8.9,0.9,11.2,2.6
			C201.8,16.3,202.9,19.1,202.9,23z M193.9,27c0.9-0.8,1.4-2.2,1.4-4c0-1.8-0.5-3.1-1.4-3.7c-1-0.7-2.6-1-5-1h-5.6v9.9h5.5
			C191.2,28.2,193,27.8,193.9,27z"/>
		<path fill="#FFFFFF" d="M220.2,11.9h7.5v33.6h-7.5V11.9z"/>
		<path fill="#FFFFFF" d="M271.2,16.3c3.2,2.9,4.8,7,4.8,12.2c0,5.2-1.6,9.3-4.7,12.4c-3.1,3-7.9,4.6-14.3,4.6h-11.5V11.9h11.9
			C263.4,11.9,268,13.3,271.2,16.3z M265.7,36.2c1.8-1.7,2.8-4.2,2.8-7.5c0-3.3-0.9-5.8-2.8-7.6c-1.8-1.8-4.7-2.7-8.5-2.7h-4.2v20.4
			h4.8C261.2,38.8,263.9,37.9,265.7,36.2z"/>
		<path fill="#FFFFFF" d="M311,28.3h7.5v11.9c-3.3,3.7-7.9,5.6-13.8,5.6c-4.9,0-9.1-1.6-12.4-4.9c-3.3-3.3-5-7.4-5-12.4
			c0-5,1.7-9.1,5.1-12.5c3.4-3.3,7.5-5,12.3-5c4.8,0,9,1.6,12.6,4.8l-3.9,5.6c-1.5-1.3-2.9-2.2-4.2-2.7c-1.3-0.5-2.6-0.7-4.1-0.7
			c-2.8,0-5.3,1-7.2,2.9c-2,1.9-2.9,4.5-2.9,7.7c0,3.2,0.9,5.7,2.8,7.6c1.9,1.9,4.1,2.9,6.7,2.9c2.6,0,4.8-0.5,6.5-1.5V28.3z"/>
		<path fill="#FFFFFF" d="M358.1,11.9v6.7h-16.7v6.9h15v6.4h-15v7h17.2v6.6h-24.7V11.9H358.1z"/>
		<path fill="#FFFFFF" d="M375.5,44.6c-0.8-0.8-1.2-1.8-1.2-3c0-1.2,0.4-2.2,1.2-3c0.8-0.8,1.8-1.2,3-1.2c1.2,0,2.2,0.4,3,1.2
			c0.8,0.8,1.2,1.8,1.2,3c0,1.2-0.4,2.2-1.2,3c-0.8,0.8-1.8,1.2-3,1.2C377.3,45.8,376.3,45.4,375.5,44.6z"/>
		<path fill="#FFFFFF" d="M421.8,11.9h7.5v33.6h-7.5l-16-21v21h-7.5V11.9h7l16.5,21.6V11.9z"/>
		<path fill="#FFFFFF" d="M469.5,11.9v6.7h-16.7v6.9h15v6.4h-15v7H470v6.6h-24.7V11.9H469.5z"/>
		<path fill="#FFFFFF" d="M500.5,18.3v27.1H493V18.3h-9.5v-6.5H510v6.5H500.5z"/>
	</g>
	<path fill="#FFFFFF" d="M75.1,56.7h8.8V37.8l-8.8-10V56.7z M91.8,46.7v10h8.8L91.8,46.7z M58.3,56.7h8.8V18.9l-8.8-10V56.7z
		 M0,56.7h11.9l29.7-33.6v33.6h8.8V0L0,56.7z"/>
</g>
</svg>
