<?xml version="1.0" encoding="utf-8"?>
<!-- Generator: Adobe Illustrator 17.1.0, SVG Export Plug-In . SVG Version: 6.00 Build 0)  -->
<!DOCTYPE svg PUBLIC "-//W3C//DTD SVG 1.1//EN" "http://www.w3.org/Graphics/SVG/1.1/DTD/svg11.dtd">
<svg version="1.1" id="Layer_1" xmlns="http://www.w3.org/2000/svg" xmlns:xlink="http://www.w3.org/1999/xlink" x="0px" y="0px"
	 width="247px" height="27.5px" viewBox="0 0 247 27.5" enable-background="new 0 0 247 27.5" xml:space="preserve">
<g>
	<g>
		<path fill="#FFFFFF" d="M72.9,22h-7.1V5.7h6.3c1.1,0,2.1,0.1,2.8,0.4c0.8,0.3,1.4,0.6,1.8,1.1C77.5,8,77.8,9,77.8,10
			c0,1.3-0.4,2.2-1.2,2.8c-0.3,0.2-0.5,0.4-0.6,0.4c-0.1,0.1-0.3,0.1-0.6,0.3c1,0.2,1.8,0.7,2.4,1.4c0.6,0.7,0.9,1.5,0.9,2.6
			c0,1.1-0.4,2.1-1.2,3C76.7,21.5,75.1,22,72.9,22z M69.4,12.3h1.7c1,0,1.8-0.1,2.2-0.3c0.5-0.2,0.7-0.7,0.7-1.4
			c0-0.7-0.2-1.2-0.7-1.4c-0.4-0.2-1.2-0.3-2.3-0.3h-1.7V12.3z M69.4,18.9h2.5c1,0,1.8-0.1,2.3-0.4c0.5-0.3,0.8-0.8,0.8-1.5
			c0-0.8-0.3-1.2-0.8-1.5c-0.6-0.2-1.4-0.4-2.6-0.4h-2.1V18.9z"/>
		<path fill="#FFFFFF" d="M98.3,11.1c0,2.6-1,4.3-3.1,5l4.1,5.8h-4.5l-3.6-5.2h-2.5V22h-3.6V5.7h6.2c2.5,0,4.3,0.4,5.4,1.3
			C97.7,7.9,98.3,9.3,98.3,11.1z M93.9,13.1c0.4-0.4,0.7-1,0.7-1.9s-0.2-1.5-0.7-1.8c-0.5-0.3-1.3-0.5-2.4-0.5h-2.7v4.8h2.7
			C92.6,13.7,93.5,13.5,93.9,13.1z"/>
		<path fill="#FFFFFF" d="M106.7,5.7h3.6V22h-3.6V5.7z"/>
		<path fill="#FFFFFF" d="M131.4,7.9c1.6,1.4,2.3,3.4,2.3,5.9c0,2.5-0.8,4.5-2.3,6c-1.5,1.5-3.8,2.2-6.9,2.2h-5.6V5.7h5.7
			C127.6,5.7,129.8,6.5,131.4,7.9z M128.7,17.5c0.9-0.8,1.3-2.1,1.3-3.7c0-1.6-0.4-2.8-1.3-3.7c-0.9-0.9-2.3-1.3-4.1-1.3h-2v9.9h2.3
			C126.5,18.8,127.8,18.4,128.7,17.5z"/>
		<path fill="#FFFFFF" d="M150.6,13.7h3.7v5.8c-1.6,1.8-3.8,2.7-6.7,2.7c-2.4,0-4.4-0.8-6-2.4c-1.6-1.6-2.4-3.6-2.4-6
			c0-2.4,0.8-4.4,2.5-6c1.7-1.6,3.6-2.4,6-2.4c2.3,0,4.4,0.8,6.1,2.3l-1.9,2.7c-0.7-0.6-1.4-1.1-2-1.3c-0.6-0.2-1.3-0.4-2-0.4
			c-1.4,0-2.5,0.5-3.5,1.4c-0.9,0.9-1.4,2.2-1.4,3.7c0,1.5,0.5,2.8,1.4,3.7c0.9,0.9,2,1.4,3.2,1.4c1.3,0,2.3-0.2,3.1-0.7V13.7z"/>
		<path fill="#FFFFFF" d="M173.4,5.7V9h-8.1v3.3h7.3v3.1h-7.3v3.4h8.4V22h-12V5.7H173.4z"/>
		<path fill="#FFFFFF" d="M181.9,21.6c-0.4-0.4-0.6-0.9-0.6-1.5c0-0.6,0.2-1.1,0.6-1.5c0.4-0.4,0.9-0.6,1.5-0.6
			c0.6,0,1.1,0.2,1.5,0.6c0.4,0.4,0.6,0.9,0.6,1.5c0,0.6-0.2,1.1-0.6,1.5c-0.4,0.4-0.9,0.6-1.5,0.6C182.7,22.2,182.2,22,181.9,21.6z
			"/>
		<path fill="#FFFFFF" d="M204.3,5.7h3.6V22h-3.6l-7.7-10.2V22h-3.6V5.7h3.4l8,10.5V5.7z"/>
		<path fill="#FFFFFF" d="M227.4,5.7V9h-8.1v3.3h7.3v3.1h-7.3v3.4h8.4V22h-12V5.7H227.4z"/>
		<path fill="#FFFFFF" d="M242.4,8.9V22h-3.6V8.9h-4.6V5.7H247v3.1H242.4z"/>
	</g>
	<path fill="#FFFFFF" d="M36.3,27.5h4.3v-9.2l-4.3-4.8V27.5z M44.5,22.6v4.8h4.3L44.5,22.6z M28.2,27.5h4.3V9.2l-4.3-4.8V27.5z
		 M0,27.5h5.7l14.4-16.3v16.3h4.3V0L0,27.5z"/>
</g>
</svg>
