<?xml version="1.0" encoding="utf-8"?>
<!-- Generator: Adobe Illustrator 17.1.0, SVG Export Plug-In . SVG Version: 6.00 Build 0)  -->
<!DOCTYPE svg PUBLIC "-//W3C//DTD SVG 1.1//EN" "http://www.w3.org/Graphics/SVG/1.1/DTD/svg11.dtd">
<svg version="1.1" id="Layer_1" xmlns="http://www.w3.org/2000/svg" xmlns:xlink="http://www.w3.org/1999/xlink" x="0px" y="0px"
	 width="64px" height="41.7px" viewBox="0 0 64 41.7" enable-background="new 0 0 64 41.7" xml:space="preserve">
<g>
	<path fill="#FFFFFF" d="M42.7,24.9h3.9v-8.3l-3.9-4.4V24.9z M50,20.5v4.4h3.9L50,20.5z M35.3,24.9h3.9V8.3l-3.9-4.4V24.9z
		 M9.7,24.9h5.2l13-14.7v14.7h3.9V0L9.7,24.9z"/>
	<path fill="#FFFFFF" d="M2.5,41.6H0v-5.7h2.2c0.4,0,0.7,0,1,0.1c0.3,0.1,0.5,0.2,0.6,0.4c0.3,0.3,0.4,0.6,0.4,1
		c0,0.4-0.1,0.8-0.4,1c-0.1,0.1-0.2,0.1-0.2,0.1c0,0-0.1,0.1-0.2,0.1c0.4,0.1,0.6,0.2,0.9,0.5c0.2,0.2,0.3,0.5,0.3,0.9
		c0,0.4-0.1,0.8-0.4,1.1C3.9,41.4,3.3,41.6,2.5,41.6z M1.3,38.2h0.6c0.4,0,0.6,0,0.8-0.1c0.2-0.1,0.3-0.2,0.3-0.5
		c0-0.3-0.1-0.4-0.2-0.5C2.5,37,2.3,37,1.9,37H1.3V38.2z M1.3,40.5h0.9c0.4,0,0.6,0,0.8-0.1c0.2-0.1,0.3-0.3,0.3-0.5
		c0-0.3-0.1-0.4-0.3-0.5c-0.2-0.1-0.5-0.1-0.9-0.1H1.3V40.5z"/>
	<path fill="#FFFFFF" d="M11.5,37.8c0,0.9-0.4,1.5-1.1,1.8l1.5,2.1h-1.6L9,39.8H8.1v1.8H6.8v-5.7H9c0.9,0,1.5,0.2,1.9,0.5
		C11.3,36.6,11.5,37.1,11.5,37.8z M9.9,38.5c0.2-0.1,0.2-0.4,0.2-0.7s-0.1-0.5-0.2-0.6C9.8,37,9.5,37,9.1,37h-1v1.7H9
		C9.5,38.7,9.8,38.6,9.9,38.5z"/>
	<path fill="#FFFFFF" d="M14.4,35.9h1.3v5.7h-1.3V35.9z"/>
	<path fill="#FFFFFF" d="M23.2,36.6c0.5,0.5,0.8,1.2,0.8,2.1c0,0.9-0.3,1.6-0.8,2.1c-0.5,0.5-1.3,0.8-2.4,0.8h-2v-5.7h2
		C21.8,35.9,22.6,36.1,23.2,36.6z M22.2,40c0.3-0.3,0.5-0.7,0.5-1.3s-0.2-1-0.5-1.3c-0.3-0.3-0.8-0.5-1.4-0.5h-0.7v3.5h0.8
		C21.5,40.5,21.9,40.3,22.2,40z"/>
	<path fill="#FFFFFF" d="M30,38.7h1.3v2c-0.6,0.6-1.4,1-2.4,1c-0.8,0-1.6-0.3-2.1-0.8c-0.6-0.6-0.9-1.3-0.9-2.1
		c0-0.9,0.3-1.6,0.9-2.1c0.6-0.6,1.3-0.9,2.1-0.9c0.8,0,1.5,0.3,2.1,0.8l-0.7,1c-0.3-0.2-0.5-0.4-0.7-0.5c-0.2-0.1-0.5-0.1-0.7-0.1
		c-0.5,0-0.9,0.2-1.2,0.5c-0.3,0.3-0.5,0.8-0.5,1.3c0,0.5,0.2,1,0.5,1.3c0.3,0.3,0.7,0.5,1.1,0.5c0.4,0,0.8-0.1,1.1-0.3V38.7z"/>
	<path fill="#FFFFFF" d="M38,35.9V37h-2.9v1.2h2.6v1.1h-2.6v1.2h2.9v1.1h-4.2v-5.7H38z"/>
	<path fill="#FFFFFF" d="M41,41.5c-0.1-0.1-0.2-0.3-0.2-0.5c0-0.2,0.1-0.4,0.2-0.5c0.1-0.1,0.3-0.2,0.5-0.2c0.2,0,0.4,0.1,0.5,0.2
		c0.1,0.1,0.2,0.3,0.2,0.5c0,0.2-0.1,0.4-0.2,0.5c-0.1,0.1-0.3,0.2-0.5,0.2C41.3,41.7,41.1,41.6,41,41.5z"/>
	<path fill="#FFFFFF" d="M48.9,35.9h1.3v5.7h-1.3L46.2,38v3.6h-1.3v-5.7h1.2l2.8,3.7V35.9z"/>
	<path fill="#FFFFFF" d="M57.1,35.9V37h-2.9v1.2h2.6v1.1h-2.6v1.2h2.9v1.1h-4.2v-5.7H57.1z"/>
	<path fill="#FFFFFF" d="M62.4,37v4.6h-1.3V37h-1.6v-1.1H64V37H62.4z"/>
</g>
</svg>
