<?xml version="1.0" encoding="utf-8"?>
<!-- Generator: Adobe Illustrator 17.1.0, SVG Export Plug-In . SVG Version: 6.00 Build 0)  -->
<!DOCTYPE svg PUBLIC "-//W3C//DTD SVG 1.1//EN" "http://www.w3.org/Graphics/SVG/1.1/DTD/svg11.dtd">
<svg version="1.1" id="Layer_1" xmlns="http://www.w3.org/2000/svg" xmlns:xlink="http://www.w3.org/1999/xlink" x="0px" y="0px"
	 width="376px" height="244.9px" viewBox="0 0 376 244.9" enable-background="new 0 0 376 244.9" xml:space="preserve">
<g>
	<path fill="#010101" d="M250.7,146.1h22.8V97.4l-22.8-25.7V146.1z M293.9,120.4v25.7h22.8L293.9,120.4z M207.5,146.1h22.8V48.7
		L207.5,23V146.1z M57.3,146.1h30.6l76.5-86.5v86.5h22.8V0L57.3,146.1z"/>
	<path fill="#010101" d="M14.8,244.5H0v-33.7h13.1c2.3,0,4.3,0.3,5.9,0.8c1.7,0.5,2.9,1.3,3.7,2.2c1.5,1.7,2.3,3.7,2.3,5.9
		c0,2.6-0.9,4.6-2.6,5.9c-0.6,0.5-1,0.7-1.2,0.8c-0.2,0.1-0.6,0.3-1.2,0.6c2.1,0.5,3.8,1.4,5,2.8c1.2,1.4,1.9,3.2,1.9,5.3
		c0,2.3-0.8,4.4-2.4,6.2C22.6,243.4,19.4,244.5,14.8,244.5z M7.5,224.4h3.6c2.1,0,3.6-0.2,4.7-0.7c1-0.5,1.5-1.4,1.5-2.9
		c0-1.5-0.5-2.5-1.4-3c-0.9-0.5-2.5-0.7-4.7-0.7H7.5V224.4z M7.5,238.1h5.2c2.2,0,3.8-0.3,4.9-0.8c1.1-0.5,1.6-1.6,1.6-3.1
		c0-1.6-0.6-2.6-1.7-3.1c-1.1-0.5-3-0.7-5.5-0.7H7.5V238.1z"/>
	<path fill="#010101" d="M67.5,221.9c0,5.4-2.1,8.9-6.4,10.5l8.5,12.1h-9.3l-7.5-10.8h-5.2v10.8h-7.5v-33.7h12.8
		c5.2,0,9,0.9,11.2,2.7C66.3,215.2,67.5,218,67.5,221.9z M58.4,225.9c0.9-0.8,1.4-2.2,1.4-4c0-1.8-0.5-3.1-1.4-3.7
		c-1-0.7-2.7-1-5.1-1h-5.6v10h5.5C55.7,227.2,57.4,226.8,58.4,225.9z"/>
	<path fill="#010101" d="M84.8,210.7h7.5v33.7h-7.5V210.7z"/>
	<path fill="#010101" d="M136.1,215.2c3.2,2.9,4.8,7,4.8,12.3c0,5.2-1.6,9.4-4.7,12.4c-3.1,3.1-7.9,4.6-14.4,4.6h-11.5v-33.7h11.9
		C128.2,210.7,132.9,212.2,136.1,215.2z M130.5,235.2c1.8-1.7,2.8-4.3,2.8-7.6c0-3.3-0.9-5.9-2.8-7.6c-1.9-1.8-4.7-2.7-8.5-2.7h-4.2
		v20.5h4.8C126.1,237.8,128.7,236.9,130.5,235.2z"/>
	<path fill="#010101" d="M176.1,227.3h7.6v12c-3.3,3.7-8,5.6-13.9,5.6c-5,0-9.1-1.6-12.5-4.9c-3.4-3.3-5-7.4-5-12.4
		c0-5,1.7-9.2,5.1-12.5c3.4-3.3,7.6-5,12.4-5c4.8,0,9,1.6,12.6,4.8l-3.9,5.6c-1.5-1.3-2.9-2.2-4.2-2.7c-1.3-0.5-2.6-0.7-4.1-0.7
		c-2.9,0-5.3,1-7.2,2.9c-2,1.9-2.9,4.5-2.9,7.7c0,3.2,0.9,5.7,2.8,7.6c1.9,1.9,4.1,2.9,6.7,2.9c2.6,0,4.8-0.5,6.5-1.5V227.3z"/>
	<path fill="#010101" d="M223.4,210.7v6.7h-16.8v6.9h15.1v6.4h-15.1v7h17.3v6.7H199v-33.7H223.4z"/>
	<path fill="#010101" d="M240.8,243.6c-0.8-0.8-1.2-1.8-1.2-3c0-1.2,0.4-2.2,1.2-3c0.8-0.8,1.8-1.2,3-1.2c1.2,0,2.2,0.4,3,1.2
		c0.8,0.8,1.2,1.8,1.2,3c0,1.2-0.4,2.2-1.2,3c-0.8,0.8-1.8,1.2-3,1.2C242.7,244.9,241.7,244.5,240.8,243.6z"/>
	<path fill="#010101" d="M287.4,210.7h7.5v33.7h-7.5l-16.1-21.1v21.1h-7.5v-33.7h7l16.6,21.7V210.7z"/>
	<path fill="#010101" d="M335.3,210.7v6.7h-16.8v6.9h15.1v6.4h-15.1v7h17.3v6.7H311v-33.7H335.3z"/>
	<path fill="#010101" d="M366.4,217.3v27.2h-7.5v-27.2h-9.6v-6.5H376v6.5H366.4z"/>
</g>
</svg>
