<?xml version="1.0" encoding="utf-8"?>
<!-- Generator: Adobe Illustrator 17.1.0, SVG Export Plug-In . SVG Version: 6.00 Build 0)  -->
<!DOCTYPE svg PUBLIC "-//W3C//DTD SVG 1.1//EN" "http://www.w3.org/Graphics/SVG/1.1/DTD/svg11.dtd">
<svg version="1.1" id="Layer_1" xmlns="http://www.w3.org/2000/svg" xmlns:xlink="http://www.w3.org/1999/xlink" x="0px" y="0px"
	 width="90px" height="10px" viewBox="0 0 90 10" enable-background="new 0 0 90 10" xml:space="preserve">
<g>
	<g>
		<path fill="#FFFFFF" d="M26.6,8H24V2.1h2.3c0.4,0,0.7,0,1,0.1c0.3,0.1,0.5,0.2,0.7,0.4c0.3,0.3,0.4,0.6,0.4,1c0,0.5-0.1,0.8-0.4,1
			c-0.1,0.1-0.2,0.1-0.2,0.1c0,0-0.1,0.1-0.2,0.1c0.4,0.1,0.7,0.2,0.9,0.5c0.2,0.3,0.3,0.6,0.3,0.9c0,0.4-0.1,0.8-0.4,1.1
			C27.9,7.8,27.4,8,26.6,8z M25.3,4.5h0.6c0.4,0,0.6,0,0.8-0.1C26.9,4.3,27,4.1,27,3.9c0-0.3-0.1-0.4-0.2-0.5
			c-0.2-0.1-0.4-0.1-0.8-0.1h-0.6V4.5z M25.3,6.9h0.9c0.4,0,0.7,0,0.9-0.1c0.2-0.1,0.3-0.3,0.3-0.6c0-0.3-0.1-0.5-0.3-0.5
			c-0.2-0.1-0.5-0.1-1-0.1h-0.8V6.9z"/>
		<path fill="#FFFFFF" d="M35.8,4.1c0,0.9-0.4,1.6-1.1,1.8L36.2,8h-1.6l-1.3-1.9h-0.9V8H31V2.1h2.2c0.9,0,1.6,0.2,2,0.5
			C35.6,2.9,35.8,3.4,35.8,4.1z M34.2,4.8c0.2-0.1,0.2-0.4,0.2-0.7c0-0.3-0.1-0.5-0.3-0.7c-0.2-0.1-0.5-0.2-0.9-0.2h-1V5h1
			C33.7,5,34.1,4.9,34.2,4.8z"/>
		<path fill="#FFFFFF" d="M38.9,2.1h1.3V8h-1.3V2.1z"/>
		<path fill="#FFFFFF" d="M47.9,2.9c0.6,0.5,0.8,1.2,0.8,2.2c0,0.9-0.3,1.6-0.8,2.2C47.3,7.8,46.5,8,45.4,8h-2V2.1h2.1
			C46.5,2.1,47.3,2.4,47.9,2.9z M46.9,6.4c0.3-0.3,0.5-0.7,0.5-1.3c0-0.6-0.2-1-0.5-1.3c-0.3-0.3-0.8-0.5-1.5-0.5h-0.7v3.6h0.8
			C46.1,6.8,46.6,6.7,46.9,6.4z"/>
		<path fill="#FFFFFF" d="M54.9,5h1.3v2.1c-0.6,0.7-1.4,1-2.4,1c-0.9,0-1.6-0.3-2.2-0.9C51,6.6,50.7,5.9,50.7,5
			c0-0.9,0.3-1.6,0.9-2.2C52.2,2.3,52.9,2,53.8,2c0.9,0,1.6,0.3,2.2,0.8l-0.7,1c-0.3-0.2-0.5-0.4-0.7-0.5c-0.2-0.1-0.5-0.1-0.7-0.1
			c-0.5,0-0.9,0.2-1.3,0.5C52.2,4,52.1,4.5,52.1,5c0,0.6,0.2,1,0.5,1.3c0.3,0.3,0.7,0.5,1.2,0.5c0.5,0,0.8-0.1,1.1-0.3V5z"/>
		<path fill="#FFFFFF" d="M63.2,2.1v1.2h-2.9v1.2h2.7v1.1h-2.7v1.2h3V8h-4.4V2.1H63.2z"/>
		<path fill="#FFFFFF" d="M66.3,7.9C66.1,7.7,66,7.5,66,7.3c0-0.2,0.1-0.4,0.2-0.5c0.1-0.1,0.3-0.2,0.5-0.2c0.2,0,0.4,0.1,0.5,0.2
			c0.1,0.1,0.2,0.3,0.2,0.5c0,0.2-0.1,0.4-0.2,0.5C67.2,8,67,8.1,66.8,8.1C66.6,8.1,66.4,8,66.3,7.9z"/>
		<path fill="#FFFFFF" d="M74.4,2.1h1.3V8h-1.3l-2.8-3.7V8h-1.3V2.1h1.2l2.9,3.8V2.1z"/>
		<path fill="#FFFFFF" d="M82.8,2.1v1.2h-2.9v1.2h2.7v1.1h-2.7v1.2h3V8h-4.4V2.1H82.8z"/>
		<path fill="#FFFFFF" d="M88.3,3.2V8H87V3.2h-1.7V2.1H90v1.1H88.3z"/>
	</g>
	<path fill="#FFFFFF" d="M13.2,10h1.6V6.7l-1.6-1.8V10z M16.2,8.2V10h1.6L16.2,8.2z M10.3,10h1.6V3.3l-1.6-1.8V10z M0,10h2.1
		l5.2-5.9V10h1.6V0L0,10z"/>
</g>
</svg>
