<?xml version="1.0" encoding="utf-8"?>
<!-- Generator: Adobe Illustrator 17.1.0, SVG Export Plug-In . SVG Version: 6.00 Build 0)  -->
<!DOCTYPE svg PUBLIC "-//W3C//DTD SVG 1.1//EN" "http://www.w3.org/Graphics/SVG/1.1/DTD/svg11.dtd">
<svg version="1.1" id="Layer_1" xmlns="http://www.w3.org/2000/svg" xmlns:xlink="http://www.w3.org/1999/xlink" x="0px" y="0px"
	 width="202px" height="131.5px" viewBox="0 0 202 131.5" enable-background="new 0 0 202 131.5" xml:space="preserve">
<g>
	<path fill="#010101" d="M134.7,78.5h12.2V52.3l-12.2-13.8V78.5z M157.9,64.7v13.8h12.2L157.9,64.7z M111.5,78.5h12.2V26.2
		l-12.2-13.8V78.5z M30.8,78.5h16.4L88.3,32v46.5h12.2V0L30.8,78.5z"/>
	<path fill="#010101" d="M7.9,131.3H0v-18.1h7.1c1.2,0,2.3,0.1,3.2,0.4c0.9,0.3,1.6,0.7,2,1.2c0.8,0.9,1.2,2,1.2,3.2
		c0,1.4-0.5,2.5-1.4,3.2c-0.3,0.2-0.5,0.4-0.6,0.5c-0.1,0.1-0.3,0.2-0.6,0.3c1.1,0.2,2,0.7,2.7,1.5c0.7,0.8,1,1.7,1,2.9
		c0,1.3-0.4,2.4-1.3,3.3C12.2,130.8,10.4,131.3,7.9,131.3z M4,120.6H6c1.1,0,2-0.1,2.5-0.4c0.5-0.2,0.8-0.8,0.8-1.6
		c0-0.8-0.3-1.3-0.8-1.6c-0.5-0.3-1.3-0.4-2.5-0.4H4V120.6z M4,127.9h2.8c1.2,0,2-0.1,2.6-0.4c0.6-0.3,0.9-0.8,0.9-1.7
		c0-0.8-0.3-1.4-0.9-1.7c-0.6-0.3-1.6-0.4-2.9-0.4H4V127.9z"/>
	<path fill="#010101" d="M36.2,119.2c0,2.9-1.1,4.8-3.4,5.6l4.6,6.5h-5l-4-5.8h-2.8v5.8h-4v-18.1h6.9c2.8,0,4.8,0.5,6,1.4
		C35.6,115.6,36.2,117.1,36.2,119.2z M31.4,121.4c0.5-0.4,0.8-1.2,0.8-2.1s-0.3-1.6-0.8-2c-0.5-0.4-1.4-0.5-2.7-0.5h-3v5.4h3
		C29.9,122.1,30.9,121.8,31.4,121.4z"/>
	<path fill="#010101" d="M45.6,113.2h4v18.1h-4V113.2z"/>
	<path fill="#010101" d="M73.1,115.6c1.7,1.6,2.6,3.8,2.6,6.6c0,2.8-0.8,5-2.5,6.7c-1.7,1.6-4.3,2.5-7.7,2.5h-6.2v-18.1h6.4
		C68.9,113.2,71.4,114,73.1,115.6z M70.1,126.4c1-0.9,1.5-2.3,1.5-4.1s-0.5-3.1-1.5-4.1c-1-1-2.5-1.4-4.6-1.4h-2.3v11h2.6
		C67.7,127.8,69.1,127.3,70.1,126.4z"/>
	<path fill="#010101" d="M94.6,122.1h4.1v6.4c-1.8,2-4.3,3-7.5,3c-2.7,0-4.9-0.9-6.7-2.6c-1.8-1.8-2.7-4-2.7-6.7
		c0-2.7,0.9-4.9,2.8-6.7c1.8-1.8,4.1-2.7,6.7-2.7c2.6,0,4.9,0.9,6.8,2.6l-2.1,3c-0.8-0.7-1.6-1.2-2.2-1.5c-0.7-0.3-1.4-0.4-2.2-0.4
		c-1.5,0-2.8,0.5-3.9,1.6c-1.1,1-1.6,2.4-1.6,4.1c0,1.7,0.5,3.1,1.5,4.1c1,1,2.2,1.5,3.6,1.5c1.4,0,2.6-0.3,3.5-0.8V122.1z"/>
	<path fill="#010101" d="M120,113.2v3.6h-9v3.7h8.1v3.4H111v3.8h9.3v3.6h-13.4v-18.1H120z"/>
	<path fill="#010101" d="M129.4,130.9c-0.4-0.4-0.7-1-0.7-1.6c0-0.6,0.2-1.2,0.7-1.6c0.4-0.4,1-0.7,1.6-0.7c0.6,0,1.2,0.2,1.6,0.7
		c0.4,0.4,0.7,1,0.7,1.6c0,0.6-0.2,1.2-0.7,1.6c-0.4,0.4-1,0.7-1.6,0.7C130.4,131.5,129.8,131.3,129.4,130.9z"/>
	<path fill="#010101" d="M154.4,113.2h4v18.1h-4l-8.6-11.4v11.4h-4v-18.1h3.8l8.9,11.7V113.2z"/>
	<path fill="#010101" d="M180.1,113.2v3.6h-9v3.7h8.1v3.4h-8.1v3.8h9.3v3.6h-13.4v-18.1H180.1z"/>
	<path fill="#010101" d="M196.9,116.7v14.6h-4v-14.6h-5.1v-3.5H202v3.5H196.9z"/>
</g>
</svg>
